<svg width="31" height="38" viewBox="0 0 31 38" fill="none" xmlns="http://www.w3.org/2000/svg">
<path fill-rule="evenodd" clip-rule="evenodd" d="M0 15.8445C0.0288149 7.36331 6.92752 0.511315 15.4087 0.54013C23.8899 0.568944 30.7419 7.46765 30.713 15.9488V16.1227C30.6087 21.6358 27.5304 26.7314 23.7565 30.714C21.5982 32.9553 19.188 34.9395 16.5739 36.6271C15.8749 37.2317 14.8381 37.2317 14.1391 36.6271C10.2421 34.0906 6.82187 30.8881 4.03478 27.1662C1.5507 23.9206 0.14033 19.9813 0 15.8967L0 15.8445Z" fill="#33CC66"/>
<path d="M20.9668 16.6997L16.7068 20.9597C15.7734 21.893 14.2401 21.893 13.3001 20.9597L9.04009 16.6997C8.10675 15.7663 8.10675 14.233 9.04009 13.293L13.3001 9.03301C14.2334 8.09967 15.7668 8.09967 16.7068 9.03301L20.9668 13.293C21.9001 14.233 21.9001 15.7663 20.9668 16.6997Z" stroke="white" stroke-width="1.5" stroke-linecap="round" stroke-linejoin="round"/>
<path d="M11.1667 11.167L18.8334 18.8337" stroke="white" stroke-width="1.5" stroke-linecap="round" stroke-linejoin="round"/>
<path d="M18.8334 11.167L11.1667 18.8337" stroke="white" stroke-width="1.5" stroke-linecap="round" stroke-linejoin="round"/>
</svg>
