<svg width="33" height="39" viewBox="0 0 33 39" fill="none" xmlns="http://www.w3.org/2000/svg">
<path fill-rule="evenodd" clip-rule="evenodd" d="M1.47827 16.7827C1.50709 8.30154 8.4058 1.44955 16.887 1.47836C25.3681 1.50718 32.2201 8.40588 32.1913 16.8871V17.061C32.087 22.574 29.0087 27.6697 25.2348 31.6523C23.0765 33.8935 20.6663 35.8777 18.0522 37.5653C17.3532 38.1699 16.3164 38.1699 15.6174 37.5653C11.7204 35.0288 8.30014 31.8264 5.51305 28.1044C3.02897 24.8589 1.6186 20.9196 1.47827 16.8349L1.47827 16.7827Z" fill="#D9D9D9" stroke="#3990E4" stroke-width="1.5" stroke-linecap="round" stroke-linejoin="round"/>
<path d="M16.737 25C15.6561 25 14.6833 24.8248 13.8186 24.4745C12.9705 24.109 12.2971 23.6216 11.7982 23.0123C11.2993 22.3878 11.0333 21.6948 11 20.9332H13.9433C13.9932 21.4663 14.2676 21.9156 14.7664 22.2812C15.2819 22.6315 15.9221 22.8067 16.6871 22.8067C17.4853 22.8067 18.1005 22.6696 18.5329 22.3954C18.9819 22.106 19.2063 21.7405 19.2063 21.2988C19.2063 20.8266 18.9569 20.4763 18.4581 20.2478C17.9758 20.0193 17.2026 19.768 16.1383 19.4938C15.1073 19.2349 14.2676 18.9836 13.619 18.7399C12.9705 18.4962 12.4051 18.123 11.9229 17.6204C11.4573 17.1178 11.2245 16.4552 11.2245 15.6327C11.2245 14.9625 11.4407 14.3533 11.873 13.8049C12.3054 13.2414 12.9206 12.7996 13.7188 12.4798C14.5336 12.1599 15.4649 12 16.5125 12C18.0756 12 19.3311 12.3656 20.2789 13.0967C21.2434 13.8125 21.7589 14.795 21.8254 16.0439H18.9819C18.932 15.4804 18.6825 15.031 18.2336 14.696C17.7846 14.3609 17.1776 14.1933 16.4127 14.1933C15.6644 14.1933 15.0907 14.3228 14.6916 14.5817C14.2925 14.8407 14.093 15.1834 14.093 15.6098C14.093 15.9449 14.226 16.2267 14.4921 16.4552C14.7581 16.6837 15.0824 16.8664 15.4649 17.0035C15.8473 17.1254 16.4127 17.2853 17.161 17.4833C18.1587 17.727 18.9735 17.9783 19.6054 18.2373C20.254 18.481 20.811 18.8465 21.2766 19.3339C21.7423 19.8213 21.9834 20.4687 22 21.2759C22 21.9918 21.7838 22.6315 21.3515 23.1951C20.9191 23.7586 20.3039 24.2004 19.5057 24.5202C18.7241 24.8401 17.8012 25 16.737 25Z" fill="#3990E4"/>
</svg>
