<svg width="31" height="37" viewBox="0 0 31 37" fill="none" xmlns="http://www.w3.org/2000/svg">
<path fill-rule="evenodd" clip-rule="evenodd" d="M0 15.6287C0.0288149 7.14748 6.92752 0.295494 15.4087 0.324309C23.8899 0.353124 30.7419 7.25183 30.713 15.733V15.9069C30.6087 21.42 27.5304 26.5156 23.7565 30.4982C21.5982 32.7395 19.188 34.7237 16.5739 36.4113C15.8749 37.0159 14.8381 37.0159 14.1391 36.4113C10.2421 33.8748 6.82187 30.6723 4.03478 26.9504C1.5507 23.7048 0.14033 19.7655 0 15.6808L0 15.6287Z" fill="#0C5398"/>
<path d="M15 16C16.1046 16 17 15.1046 17 14C17 12.8954 16.1046 12 15 12C13.8954 12 13 12.8954 13 14C13 15.1046 13.8954 16 15 16Z" stroke="white" stroke-miterlimit="10" stroke-linecap="round" stroke-linejoin="round"/>
<path d="M8.33325 14.5863V13.413C8.33325 12.7196 8.89992 12.1463 9.59992 12.1463C10.8066 12.1463 11.2999 11.293 10.6933 10.2463C10.3466 9.6463 10.5533 8.8663 11.1599 8.51963L12.3133 7.85963C12.8399 7.5463 13.5199 7.73297 13.8333 8.25963L13.9066 8.3863C14.5066 9.43297 15.4933 9.43297 16.0999 8.3863L16.1733 8.25963C16.4866 7.73297 17.1666 7.5463 17.6933 7.85963L18.8466 8.51963C19.4533 8.8663 19.6599 9.6463 19.3133 10.2463C18.7066 11.293 19.1999 12.1463 20.4066 12.1463C21.0999 12.1463 21.6733 12.713 21.6733 13.413V14.5863C21.6733 15.2796 21.1066 15.853 20.4066 15.853C19.1999 15.853 18.7066 16.7063 19.3133 17.753C19.6599 18.3596 19.4533 19.133 18.8466 19.4796L17.6933 20.1396C17.1666 20.453 16.4866 20.2663 16.1733 19.7396L16.0999 19.613C15.4999 18.5663 14.5133 18.5663 13.9066 19.613L13.8333 19.7396C13.5199 20.2663 12.8399 20.453 12.3133 20.1396L11.1599 19.4796C10.5533 19.133 10.3466 18.353 10.6933 17.753C11.2999 16.7063 10.8066 15.853 9.59992 15.853C8.89992 15.853 8.33325 15.2796 8.33325 14.5863Z" stroke="white" stroke-miterlimit="10" stroke-linecap="round" stroke-linejoin="round"/>
</svg>
