<svg width="31" height="38" viewBox="0 0 31 38" fill="none" xmlns="http://www.w3.org/2000/svg">
<path fill-rule="evenodd" clip-rule="evenodd" d="M0 16.0876C0.0288149 7.60647 6.92752 0.754479 15.4087 0.783294C23.8899 0.812109 30.7419 7.71082 30.713 16.192V16.3659C30.6087 21.8789 27.5304 26.9746 23.7565 30.9572C21.5982 33.1985 19.188 35.1827 16.5739 36.8703C15.8749 37.4749 14.8381 37.4749 14.1391 36.8703C10.2421 34.3337 6.82187 31.1313 4.03478 27.4094C1.5507 24.1638 0.14033 20.2245 0 16.1398L0 16.0876Z" fill="#FFDB94"/>
<path d="M20.5416 15.0004C20.5416 17.822 18.2794 20.1004 15.4999 20.1004C12.7204 20.1004 10.4583 17.822 10.4583 15.0004C10.4583 12.1788 12.7204 9.90039 15.4999 9.90039C18.2794 9.90039 20.5416 12.1788 20.5416 15.0004Z" stroke="white"/>
<path d="M18.1671 14.7628C18.1671 16.0922 17.005 17.2257 15.5004 17.2257C13.9958 17.2257 12.8337 16.0922 12.8337 14.7628C12.8337 13.4333 13.9958 12.2998 15.5004 12.2998C17.005 12.2998 18.1671 13.4333 18.1671 14.7628Z" stroke="white"/>
<path d="M10.4514 9.04826C11.1015 8.08051 12.1908 7.5 13.3566 7.5H17.6099C18.7919 7.5 19.894 8.09653 20.5403 9.08611L23.1528 13.0861C23.9123 14.249 23.9123 15.751 23.1528 16.9139L20.5403 20.9139C19.894 21.9035 18.7919 22.5 17.6099 22.5H13.4224C12.225 22.5 11.1107 21.8878 10.4684 20.8772L7.82395 16.7158C7.07866 15.5429 7.09777 14.0403 7.87266 12.8868L10.4514 9.04826Z" stroke="white"/>
</svg>
