<svg width="31" height="37" viewBox="0 0 31 37" fill="none" xmlns="http://www.w3.org/2000/svg">
<path fill-rule="evenodd" clip-rule="evenodd" d="M0 15.3308C0.0288149 6.84963 6.92752 -0.00235712 15.4087 0.0264577C23.8899 0.0552726 30.7419 6.95398 30.713 15.4352V15.6091C30.6087 21.1221 27.5304 26.2178 23.7565 30.2004C21.5982 32.4416 19.188 34.4258 16.5739 36.1134C15.8749 36.718 14.8381 36.718 14.1391 36.1134C10.2421 33.5769 6.82187 30.3745 4.03478 26.6525C1.5507 23.407 0.14033 19.4677 0 15.383L0 15.3308Z" fill="#062D53"/>
<rect x="9.25" y="7.25" width="11.5" height="15.5" rx="0.75" fill="#062D53" stroke="white" stroke-width="0.5"/>
<rect x="10.5833" y="8.58301" width="8.83333" height="4.16667" rx="0.75" fill="#062D53" stroke="white" stroke-width="0.5"/>
<rect x="10.5833" y="13.917" width="3.83333" height="7.5" rx="0.75" fill="#062D53" stroke="white" stroke-width="0.5"/>
<rect x="15.5833" y="13.917" width="3.83333" height="7.5" rx="0.75" fill="#062D53" stroke="white" stroke-width="0.5"/>
</svg>

