<svg width="31" height="37" viewBox="0 0 31 37" fill="none" xmlns="http://www.w3.org/2000/svg">
<path fill-rule="evenodd" clip-rule="evenodd" d="M0 15.7097C0.0288149 7.22854 6.92752 0.376549 15.4087 0.405364C23.8899 0.434179 30.7419 7.33289 30.713 15.8141V15.988C30.6087 21.501 27.5304 26.5967 23.7565 30.5793C21.5982 32.8205 19.188 34.8047 16.5739 36.4923C15.8749 37.0969 14.8381 37.0969 14.1391 36.4923C10.2421 33.9558 6.82187 30.7534 4.03478 27.0315C1.5507 23.7859 0.14033 19.8466 0 15.7619L0 15.7097Z" fill="#ADEBC2"/>
<mask id="path-2-inside-1_1814_16968" fill="white">
<path d="M11.3752 10.5596C9.2548 10.5596 7.53589 12.2785 7.53589 14.3989C7.53589 16.5192 9.2548 18.2381 11.3752 18.2381C13.4956 18.2381 15.2145 16.5193 15.2145 14.3989C15.212 12.2795 13.4945 10.5621 11.3752 10.5596ZM11.3752 17.7582C9.51983 17.7582 8.01578 16.2542 8.01578 14.3989C8.01578 12.5435 9.51983 11.0395 11.3752 11.0395C13.2305 11.0395 14.7346 12.5435 14.7346 14.3989C14.7326 16.2534 13.2297 17.7563 11.3752 17.7582Z"/>
</mask>
<path d="M11.3752 10.5596L11.3775 8.55957H11.3752V10.5596ZM15.2145 14.3989H17.2145L17.2145 14.3965L15.2145 14.3989ZM11.3752 17.7582V19.7582L11.3773 19.7582L11.3752 17.7582ZM14.7346 14.3989L16.7346 14.401V14.3989H14.7346ZM11.3752 8.55957C8.15023 8.55957 5.53589 11.1739 5.53589 14.3989H9.53589C9.53589 13.383 10.3594 12.5596 11.3752 12.5596V8.55957ZM5.53589 14.3989C5.53589 17.6238 8.15023 20.2381 11.3752 20.2381V16.2381C10.3594 16.2381 9.53589 15.4147 9.53589 14.3989H5.53589ZM11.3752 20.2381C14.6001 20.2381 17.2145 17.6238 17.2145 14.3989H13.2145C13.2145 15.4147 12.391 16.2381 11.3752 16.2381V20.2381ZM17.2145 14.3965C17.2107 11.1744 14.5996 8.56338 11.3775 8.55957L11.3728 12.5596C12.3894 12.5608 13.2133 13.3846 13.2145 14.4012L17.2145 14.3965ZM11.3752 15.7582C10.6244 15.7582 10.0158 15.1496 10.0158 14.3989H6.01578C6.01578 17.3588 8.41526 19.7582 11.3752 19.7582V15.7582ZM10.0158 14.3989C10.0158 13.6481 10.6244 13.0395 11.3752 13.0395V9.03946C8.41526 9.03946 6.01578 11.4389 6.01578 14.3989H10.0158ZM11.3752 13.0395C12.126 13.0395 12.7346 13.6481 12.7346 14.3989H16.7346C16.7346 11.4389 14.3351 9.03946 11.3752 9.03946V13.0395ZM12.7346 14.3967C12.7338 15.1483 12.1246 15.7574 11.373 15.7582L11.3773 19.7582C14.3347 19.7551 16.7314 17.3584 16.7346 14.401L12.7346 14.3967Z" fill="white" mask="url(#path-2-inside-1_1814_16968)"/>
<mask id="path-4-inside-2_1814_16968" fill="white">
<path d="M12.7806 13.5501C12.69 13.6426 12.5839 13.7185 12.4672 13.7746C12.4398 13.7881 12.4151 13.7564 12.432 13.7309C12.6014 13.4758 12.7069 13.183 12.7386 12.8773C12.7759 12.5674 12.6706 12.2572 12.4522 12.0342C12.3059 11.8864 12.1301 11.771 11.9362 11.6957C11.5844 11.5376 11.1801 11.5462 10.8353 11.7191C10.6164 11.8154 10.4459 11.9964 10.3629 12.2207C10.2531 12.4864 10.317 12.7923 10.524 12.9918C10.6162 13.0826 10.6922 13.1885 10.7487 13.3049C10.762 13.332 10.7307 13.3564 10.7055 13.3397C10.4501 13.1704 10.157 13.0653 9.85111 13.0342C9.54238 12.9982 9.23382 13.103 9.01096 13.3197C8.86339 13.4662 8.74822 13.642 8.67297 13.8358C8.51426 14.1881 8.52289 14.5932 8.69641 14.9384C8.79347 15.1556 8.97375 15.3247 9.19672 15.4076C9.2869 15.4407 9.38208 15.4583 9.47817 15.4594C9.66409 15.4583 9.84171 15.3822 9.97073 15.2483C10.0614 15.1558 10.1676 15.0799 10.2843 15.0238C10.3109 15.0105 10.3348 15.0412 10.3184 15.0659C10.1489 15.3216 10.0435 15.615 10.012 15.9211C9.97468 16.2307 10.0792 16.5405 10.2965 16.764C10.4429 16.9118 10.6187 17.0271 10.8125 17.1025C10.9814 17.1748 11.1629 17.2126 11.3465 17.214C11.544 17.2134 11.7386 17.1668 11.9149 17.0779C12.1328 16.9811 12.3025 16.8003 12.3854 16.5766C12.4946 16.3111 12.4308 16.0058 12.2242 15.8064C12.1321 15.7152 12.0562 15.6089 12 15.492C11.9868 15.4655 12.0175 15.4415 12.0422 15.4579C12.2978 15.6273 12.5911 15.7327 12.8972 15.7642C12.9369 15.7684 12.9768 15.7705 13.0168 15.7705C13.2868 15.7717 13.5466 15.6666 13.7399 15.478C13.8876 15.3315 14.003 15.1557 14.0786 14.9619C14.2365 14.6093 14.2273 14.2043 14.0535 13.8593C13.9566 13.6421 13.7765 13.4731 13.5536 13.3901C13.2877 13.2787 12.9806 13.3423 12.7806 13.5501ZM10.789 14.3989C10.789 14.075 11.0516 13.8124 11.3754 13.8124C11.5849 13.8127 11.7783 13.9248 11.8828 14.1064C11.9873 14.288 11.987 14.5115 11.882 14.6928C11.777 14.8741 11.5833 14.9857 11.3738 14.9854C11.0506 14.9845 10.789 14.7221 10.789 14.3989ZM10.8071 12.3777C10.8071 12.3778 10.8073 12.3779 10.8073 12.3778C10.8508 12.2707 10.9359 12.1858 11.0431 12.1426C11.2669 12.0297 11.5301 12.0251 11.7577 12.1302C11.8914 12.1808 12.0129 12.2592 12.1143 12.3601C12.2374 12.4832 12.296 12.6567 12.2728 12.8293C12.2687 12.87 12.2629 12.9104 12.2554 12.9504C12.1878 13.3087 11.7421 13.345 11.3776 13.344C11.3136 13.347 11.2541 13.3065 11.2339 13.2457C11.2174 13.1963 11.1975 13.1482 11.1742 13.1016C11.0944 12.9379 10.9877 12.7888 10.8585 12.6606C10.7787 12.5891 10.7575 12.4727 10.8069 12.3776C10.8069 12.3775 10.8071 12.3776 10.8071 12.3777ZM10.0777 14.6031C10.0777 14.6034 10.0775 14.6038 10.0771 14.604C9.91374 14.683 9.7651 14.7895 9.63765 14.9187C9.5653 14.9981 9.4483 15.0182 9.35361 14.9675C9.24647 14.9244 9.16131 14.8398 9.11742 14.733C9.00434 14.5088 9.00002 14.2452 9.10568 14.0174C9.15623 13.8836 9.23437 13.762 9.33508 13.6604C9.45844 13.5377 9.63179 13.4794 9.80419 13.5025C9.84537 13.5067 9.88624 13.5128 9.9267 13.5205C10.2841 13.5889 10.3214 14.0334 10.32 14.3972C10.323 14.4619 10.282 14.5219 10.2206 14.5425C10.1718 14.5589 10.1242 14.5789 10.0782 14.6022C10.0779 14.6024 10.0777 14.6027 10.0777 14.6031ZM11.9426 16.422C11.9426 16.4223 11.9425 16.4226 11.9424 16.423C11.899 16.5294 11.8145 16.6138 11.708 16.6571C11.4843 16.7702 11.2212 16.7748 10.9936 16.6697C10.8598 16.6192 10.7381 16.5411 10.6366 16.4403C10.5136 16.3166 10.4552 16.1428 10.4785 15.97C10.4826 15.9288 10.4886 15.888 10.4962 15.8476C10.564 15.49 11.0089 15.4537 11.3729 15.455H11.3754C11.4395 15.4524 11.4989 15.4929 11.5193 15.5537C11.5359 15.603 11.5561 15.6511 11.5797 15.6976C11.659 15.8612 11.7653 16.0103 11.8943 16.1384C11.9721 16.2109 11.992 16.3265 11.9429 16.4208C11.9427 16.4211 11.9426 16.4216 11.9426 16.422ZM13.6454 14.7822C13.6454 14.7825 13.6453 14.7828 13.6452 14.7832C13.5949 14.9166 13.5169 15.038 13.4164 15.1393C13.2926 15.2623 13.1187 15.3209 12.9457 15.2979C12.8203 15.2848 12.6977 15.2554 12.5809 15.2108C12.3746 15.132 12.3532 14.8717 12.4054 14.6571C12.4132 14.6247 12.4194 14.5918 12.4237 14.5586C12.4434 14.4082 12.5381 14.267 12.6734 14.1984C12.8373 14.1191 12.9864 14.0123 13.1141 13.8826C13.1864 13.8038 13.3029 13.784 13.3972 13.8343C13.5036 13.878 13.5881 13.9625 13.6318 14.0688C13.7442 14.2918 13.7493 14.5538 13.6456 14.781C13.6455 14.7813 13.6454 14.7817 13.6454 14.7822Z"/>
</mask>
<path d="M12.7806 13.5501L14.9227 15.6505L14.9326 15.6403L14.9425 15.6301L12.7806 13.5501ZM12.7386 12.8773L9.76013 12.5186L9.7572 12.543L9.75467 12.5674L12.7386 12.8773ZM12.4522 12.0342L14.596 9.9355L14.5901 9.92953L14.5842 9.9236L12.4522 12.0342ZM11.9362 11.6957L10.7072 14.4324L10.7773 14.4638L10.8489 14.4917L11.9362 11.6957ZM10.8353 11.7191L12.0431 14.4652L12.1122 14.4348L12.1798 14.401L10.8353 11.7191ZM10.3629 12.2207L13.1354 13.3666L13.1568 13.3148L13.1763 13.2623L10.3629 12.2207ZM10.524 12.9918L12.6289 10.8541L12.6172 10.8426L12.6054 10.8313L10.524 12.9918ZM9.85111 13.0342L9.50324 16.014L9.52524 16.0165L9.54727 16.0188L9.85111 13.0342ZM9.01096 13.3197L6.91963 11.1688L6.90866 11.1795L6.89779 11.1903L9.01096 13.3197ZM8.67297 13.8358L11.4082 15.0681L11.4408 14.9957L11.4695 14.9217L8.67297 13.8358ZM8.69641 14.9384L11.4354 13.7145L11.4076 13.6522L11.3769 13.5912L8.69641 14.9384ZM9.19672 15.4076L8.15107 18.2195L8.16154 18.2233L9.19672 15.4076ZM9.47817 15.4594L9.44213 18.4592L9.46902 18.4595L9.49592 18.4594L9.47817 15.4594ZM9.97073 15.2483L7.82893 13.1477L7.8197 13.1571L7.81054 13.1666L9.97073 15.2483ZM10.012 15.9211L12.9904 16.28L12.9935 16.2544L12.9962 16.2287L10.012 15.9211ZM10.2965 16.764L8.14503 18.8548L8.15511 18.8651L8.16528 18.8754L10.2965 16.764ZM10.8125 17.1025L11.9921 14.3442L11.9467 14.3248L11.9007 14.3069L10.8125 17.1025ZM11.3465 17.214L11.325 20.2139L11.3402 20.214L11.3553 20.2139L11.3465 17.214ZM11.9149 17.0779L10.6971 14.3362L10.6298 14.3661L10.564 14.3993L11.9149 17.0779ZM12.3854 16.5766L9.61121 15.4346L9.59073 15.4844L9.57204 15.5348L12.3854 16.5766ZM12.2242 15.8064L10.1142 17.9389L10.1273 17.9519L10.1405 17.9647L12.2242 15.8064ZM12.8972 15.7642L13.2108 12.7806L13.2045 12.78L12.8972 15.7642ZM13.0168 15.7705L13.0296 12.7705L13.0188 12.7705L13.0168 15.7705ZM13.7399 15.478L15.835 17.6252L15.8435 17.6169L15.8519 17.6086L13.7399 15.478ZM14.0786 14.9619L11.3408 13.7353L11.3104 13.803L11.2835 13.8722L14.0786 14.9619ZM14.0535 13.8593L11.3139 15.0819L11.3426 15.1462L11.3742 15.209L14.0535 13.8593ZM13.5536 13.3901L12.3951 16.1574L12.4504 16.1805L12.5065 16.2014L13.5536 13.3901ZM11.3754 13.8124L11.3797 10.8124H11.3754V13.8124ZM11.8828 14.1064L9.2824 15.6023L9.28257 15.6026L11.8828 14.1064ZM11.3738 14.9854L11.3653 17.9854L11.3698 17.9854L11.3738 14.9854ZM11.0431 12.1426L12.1655 14.9247L12.2816 14.8778L12.3935 14.8215L11.0431 12.1426ZM11.7577 12.1302L10.5012 14.8543L10.5965 14.8983L10.6946 14.9355L11.7577 12.1302ZM12.1143 12.3601L14.2355 10.2387L14.2309 10.234L12.1143 12.3601ZM12.2728 12.8293L9.29951 12.43L9.29286 12.4795L9.28787 12.5293L12.2728 12.8293ZM11.1742 13.1016L8.47735 14.4158L8.48428 14.43L8.49135 14.4442L11.1742 13.1016ZM10.8585 12.6606L12.9721 10.5315L12.9175 10.4774L12.8603 10.4262L10.8585 12.6606ZM9.63765 14.9187L7.50143 12.8124L7.45994 12.8545L7.42014 12.8982L9.63765 14.9187ZM9.35361 14.9675L10.7696 12.3227L10.6255 12.2456L10.474 12.1846L9.35361 14.9675ZM9.11742 14.733L11.8923 13.5928L11.8482 13.4854L11.7959 13.3818L9.11742 14.733ZM9.10568 14.0174L11.8271 15.2799L11.8733 15.1803L11.9121 15.0776L9.10568 14.0174ZM9.33508 13.6604L7.21997 11.5329L7.21228 11.5405L7.20465 11.5482L9.33508 13.6604ZM9.80419 13.5025L9.40542 16.4759L9.45073 16.482L9.4962 16.4866L9.80419 13.5025ZM11.708 16.6571L10.5786 13.8778L10.4644 13.9242L10.3545 13.9798L11.708 16.6571ZM10.9936 16.6697L12.2512 13.9461L12.1538 13.9011L12.0534 13.8632L10.9936 16.6697ZM10.6366 16.4403L8.50892 18.5553L8.5163 18.5627L8.52372 18.5701L10.6366 16.4403ZM10.4785 15.97L13.4517 16.3704L13.4584 16.3205L13.4634 16.2704L10.4785 15.97ZM11.5797 15.6976L14.2795 14.3895L14.2672 14.3641L14.2545 14.339L11.5797 15.6976ZM11.8943 16.1384L9.77933 18.2661L9.81426 18.3008L9.8503 18.3344L11.8943 16.1384ZM13.4164 15.1393L15.5304 17.2679L15.5384 17.26L15.5463 17.252L13.4164 15.1393ZM12.9457 15.2979L13.3408 12.324L13.2987 12.3184L13.2565 12.314L12.9457 15.2979ZM13.1141 13.8826L15.2514 15.9878L15.2884 15.9503L15.324 15.9115L13.1141 13.8826ZM13.3972 13.8343L11.9858 16.4815L12.1182 16.5521L12.257 16.6091L13.3972 13.8343ZM13.6318 14.0688L10.8568 15.2087L10.9008 15.316L10.953 15.4195L13.6318 14.0688ZM12.4237 14.5586L9.44909 14.1693L12.4237 14.5586ZM12.5809 15.2108L11.5107 18.0134L12.5809 15.2108ZM10.4962 15.8476L7.54864 15.2892L10.4962 15.8476ZM11.9424 16.423L9.16417 15.2909L11.9424 16.423ZM10.0782 14.6022L8.7218 11.9264L10.0782 14.6022ZM13.6456 14.781L10.9163 13.5356L13.6456 14.781ZM10.2206 14.5425L9.26328 11.6994L10.2206 14.5425ZM9.9267 13.5205L9.36312 16.4671L9.9267 13.5205ZM11.5193 15.5537L8.67623 16.5112L11.5193 15.5537ZM11.2339 13.2457L14.0799 12.2968L11.2339 13.2457ZM12.2554 12.9504L9.30729 12.3946L12.2554 12.9504ZM11.9429 16.4208L9.28221 15.0348L11.9429 16.4208ZM10.8069 12.3776L13.4687 13.7614L10.8069 12.3776ZM13.6452 14.7832L16.4522 15.8418L13.6452 14.7832ZM10.0771 14.604L8.77031 11.9035L10.0771 14.604ZM12.0422 15.4579L13.6998 12.9574L12.0422 15.4579ZM10.3184 15.0659L7.81794 13.4083L10.3184 15.0659ZM10.8073 12.3778L8.02798 11.2485L10.8073 12.3778ZM10.7055 13.3397L9.04805 15.8403L10.7055 13.3397ZM12.432 13.7309L9.93272 12.0716L12.432 13.7309ZM10.6385 11.4498C10.7916 11.2937 10.9707 11.1654 11.1676 11.0708L13.7669 16.4785C14.1972 16.2717 14.5883 15.9915 14.9227 15.6505L10.6385 11.4498ZM14.9314 15.3903C15.3685 14.7318 15.6406 13.9761 15.7226 13.1873L9.75467 12.5674C9.7731 12.3899 9.83432 12.2198 9.93272 12.0716L14.9314 15.3903ZM15.7171 13.236C15.8632 12.0229 15.451 10.8089 14.596 9.9355L10.3085 14.1329C9.89027 13.7056 9.68869 13.1118 9.76013 12.5186L15.7171 13.236ZM14.5842 9.9236C14.1414 9.4763 13.6096 9.12755 13.0236 8.89965L10.8489 14.4917C10.6505 14.4145 10.4704 14.2964 10.3202 14.1448L14.5842 9.9236ZM13.1652 8.95895C11.9909 8.4316 10.6417 8.46027 9.49078 9.03725L12.1798 14.401C11.7185 14.6322 11.1778 14.6437 10.7072 14.4324L13.1652 8.95895ZM9.62749 8.97297C8.66423 9.39662 7.91463 10.1929 7.54953 11.179L13.1763 13.2623C12.9772 13.7998 12.5685 14.2341 12.0431 14.4652L9.62749 8.97297ZM7.5904 11.0747C7.00972 12.4796 7.3474 14.0971 8.4426 15.1522L12.6054 10.8313C13.2865 11.4875 13.4964 12.4932 13.1354 13.3666L7.5904 11.0747ZM8.41913 15.1294C8.26715 14.9797 8.14235 14.8055 8.04973 14.6147L13.4477 11.9952C13.2421 11.5714 12.9653 11.1854 12.6289 10.8541L8.41913 15.1294ZM12.363 10.8392C11.703 10.4017 10.9454 10.1301 10.1549 10.0496L9.54727 16.0188C9.3685 16.0006 9.19723 15.9392 9.04805 15.8403L12.363 10.8392ZM10.199 10.0544C8.99388 9.91376 7.78949 10.323 6.91963 11.1688L11.1023 15.4706C10.6781 15.883 10.0909 16.0826 9.50324 16.014L10.199 10.0544ZM6.89779 11.1903C6.4519 11.6328 6.10386 12.1641 5.87639 12.7499L11.4695 14.9217C11.3926 15.1199 11.2749 15.2995 11.1241 15.4491L6.89779 11.1903ZM5.93773 12.6035C5.40764 13.7802 5.43656 15.1329 6.01594 16.2856L11.3769 13.5912C11.6092 14.0534 11.6209 14.596 11.4082 15.0681L5.93773 12.6035ZM5.9574 16.1622C6.3829 17.1145 7.17335 17.8559 8.15108 18.2195L10.2424 12.5957C10.7741 12.7935 11.204 13.1967 11.4354 13.7145L5.9574 16.1622ZM8.16154 18.2233C8.57178 18.3742 9.00485 18.454 9.44213 18.4592L9.51422 12.4597C9.75932 12.4626 10.002 12.5073 10.2319 12.5918L8.16154 18.2233ZM9.49592 18.4594C10.4909 18.4535 11.4409 18.046 12.1309 17.33L7.81054 13.1666C8.24248 12.7184 8.8373 12.4632 9.46043 12.4595L9.49592 18.4594ZM12.1125 17.349C11.9591 17.5054 11.7798 17.6337 11.5827 17.7283L8.98595 12.3193C8.55532 12.5261 8.16374 12.8063 7.82893 13.1477L12.1125 17.349ZM7.81794 13.4083C7.3809 14.0676 7.10917 14.8241 7.02779 15.6135L12.9962 16.2287C12.9779 16.4059 12.9169 16.5756 12.8189 16.7235L7.81794 13.4083ZM7.03353 15.5622C6.88786 16.771 7.29617 17.9812 8.14503 18.8548L12.448 14.6733C12.8623 15.0997 13.0615 15.6903 12.9904 16.28L7.03353 15.5622ZM8.16528 18.8754C8.60761 19.3219 9.13878 19.6703 9.7243 19.8982L11.9007 14.3069C12.0986 14.3839 12.2782 14.5017 12.4277 14.6526L8.16528 18.8754ZM9.63288 19.8609C10.1678 20.0896 10.743 20.2097 11.325 20.2139L11.3681 14.214C11.5829 14.2156 11.795 14.2599 11.9921 14.3442L9.63288 19.8609ZM11.3553 20.2139C12.0189 20.212 12.673 20.0555 13.2657 19.7566L10.564 14.3993C10.8041 14.2781 11.0691 14.2148 11.3378 14.214L11.3553 20.2139ZM13.1326 19.8196C14.09 19.3944 14.835 18.6005 15.1987 17.6183L9.57204 15.5348C9.77006 15.0001 10.1757 14.5678 10.6971 14.3362L13.1326 19.8196ZM15.1595 17.7185C15.7371 16.3154 15.3995 14.702 14.3079 13.6481L10.1405 17.9647C9.46203 17.3096 9.2522 16.3067 9.61121 15.4346L15.1595 17.7185ZM14.3343 13.6739C14.4861 13.8241 14.6108 13.9991 14.7032 14.1909L9.29683 16.7931C9.50166 17.2187 9.77802 17.6063 10.1142 17.9389L14.3343 13.6739ZM10.3845 17.9583C11.044 18.3955 11.8005 18.6671 12.5898 18.7484L13.2045 12.78C13.3817 12.7982 13.5516 12.8592 13.6998 12.9574L10.3845 17.9583ZM12.5835 18.7477C12.7262 18.7627 12.8702 18.7704 13.0147 18.7705L13.0188 12.7705C13.0835 12.7705 13.1476 12.774 13.2108 12.7806L12.5835 18.7477ZM13.0039 18.7705C14.0614 18.775 15.0782 18.3636 15.835 17.6252L11.6448 13.3307C12.015 12.9695 12.5123 12.7683 13.0296 12.7705L13.0039 18.7705ZM15.8519 17.6086C16.2976 17.1667 16.6457 16.6363 16.8737 16.0516L11.2835 13.8722C11.3603 13.6751 11.4776 13.4963 11.6279 13.3474L15.8519 17.6086ZM16.8163 16.1885C17.3435 15.0119 17.3126 13.6607 16.7327 12.5096L11.3742 15.209C11.142 14.748 11.1296 14.2067 11.3408 13.7353L16.8163 16.1885ZM16.793 12.6366C16.368 11.6843 15.578 10.9428 14.6007 10.5788L12.5065 16.2014C11.9749 16.0034 11.5451 15.6 11.3139 15.0819L16.793 12.6366ZM14.7121 10.6228C13.3035 10.0331 11.6774 10.3698 10.6187 11.4702L14.9425 15.6301C14.2838 16.3148 13.2718 16.5244 12.3951 16.1574L14.7121 10.6228ZM13.789 14.3989C13.789 15.7313 12.7089 16.8124 11.3754 16.8124V10.8124C9.39418 10.8124 7.78904 12.4186 7.78904 14.3989H13.789ZM11.3711 16.8124C10.5087 16.8112 9.71243 16.3499 9.2824 15.6023L14.4832 12.6104C13.8442 11.4997 12.6612 10.8143 11.3797 10.8124L11.3711 16.8124ZM9.28257 15.6026C8.85247 14.8552 8.85392 13.9353 9.28589 13.1894L14.4781 16.1963C15.12 15.0878 15.1221 13.7208 14.483 12.6101L9.28257 15.6026ZM9.28589 13.1894C9.718 12.4433 10.5154 11.9842 11.3777 11.9854L11.3698 17.9854C12.6511 17.9871 13.836 17.305 14.4781 16.1963L9.28589 13.1894ZM11.3822 11.9854C12.7132 11.9891 13.789 13.0692 13.789 14.3989H7.78904C7.78904 16.3751 9.38794 17.9798 11.3653 17.9854L11.3822 11.9854ZM13.5867 13.507C13.3245 14.1522 12.8119 14.6639 12.1655 14.9247L9.92062 9.36048C9.0599 9.70774 8.37715 10.3891 8.02798 11.2485L13.5867 13.507ZM12.3935 14.8215C11.8008 15.1202 11.1041 15.1324 10.5012 14.8543L13.0143 9.406C11.956 8.91784 10.7331 8.93925 9.69268 9.46369L12.3935 14.8215ZM10.6946 14.9355C10.433 14.8363 10.1956 14.6831 9.99765 14.4861L14.2309 10.234C13.8303 9.83522 13.3498 9.52532 12.8209 9.32485L10.6946 14.9355ZM9.99298 14.4814C9.45438 13.9428 9.19825 13.1842 9.29951 12.43L15.2461 13.2285C15.3937 12.1292 15.0204 11.0235 14.2355 10.2387L9.99298 14.4814ZM9.28787 12.5293C9.29241 12.484 9.2989 12.4391 9.30729 12.3946L15.2034 13.5062C15.2269 13.3817 15.2451 13.2559 15.2578 13.1292L9.28787 12.5293ZM14.0799 12.2968C14.0185 12.1126 13.944 11.9329 13.857 11.7591L8.49135 14.4442C8.45098 14.3635 8.41642 14.2801 8.38789 14.1945L14.0799 12.2968ZM13.871 11.7874C13.6438 11.3212 13.3399 10.8967 12.9721 10.5315L8.7449 14.7896C8.63548 14.681 8.545 14.5546 8.47735 14.4158L13.871 11.7874ZM12.8603 10.4262C13.8008 11.2688 14.051 12.6413 13.4687 13.7614L8.14505 10.9939C7.46397 12.3041 7.75657 13.9094 8.8566 14.895L12.8603 10.4262ZM8.77031 11.9035C8.29866 12.1318 7.86947 12.4392 7.50143 12.8124L11.7739 17.0251C11.6607 17.1398 11.5288 17.2343 11.3839 17.3044L8.77031 11.9035ZM7.42014 12.8982C8.27321 11.962 9.65314 11.725 10.7696 12.3227L7.93765 17.6124C9.24345 18.3114 10.8574 18.0343 11.8552 16.9393L7.42014 12.8982ZM10.474 12.1846C11.1182 12.4439 11.6291 12.9522 11.8923 13.5928L6.34253 15.8731C6.69351 16.7273 7.37476 17.4049 8.23322 17.7505L10.474 12.1846ZM11.7959 13.3818C12.096 13.9766 12.1073 14.6758 11.8271 15.2799L6.38424 12.755C5.89271 13.8146 5.91271 15.041 6.43891 16.0841L11.7959 13.3818ZM11.9121 15.0776C11.8139 15.3376 11.6619 15.5745 11.4655 15.7725L7.20465 11.5482C6.80685 11.9494 6.49856 12.4297 6.29927 12.9572L11.9121 15.0776ZM11.4502 15.7879C10.9128 16.3221 10.1573 16.5767 9.40542 16.4759L10.203 10.5291C9.10625 10.382 8.00405 10.7534 7.21997 11.5329L11.4502 15.7879ZM9.4962 16.4866C9.45148 16.482 9.40708 16.4755 9.36312 16.4671L10.4903 10.5739C10.3654 10.55 10.2393 10.5315 10.1122 10.5183L9.4962 16.4866ZM9.26328 11.6994C9.07795 11.7618 8.89696 11.8376 8.7218 11.9264L11.4346 17.2781C11.3515 17.3202 11.2657 17.3561 11.1779 17.3857L9.26328 11.6994ZM9.16417 15.2909C9.42602 14.6483 9.93614 14.1389 10.5786 13.8778L12.8374 19.4364C13.6928 19.0888 14.372 18.4105 14.7206 17.5551L9.16417 15.2909ZM10.3545 13.9798C10.9485 13.6795 11.6471 13.6671 12.2512 13.9461L9.73593 19.3934C10.7953 19.8826 12.0202 19.8609 13.0616 19.3344L10.3545 13.9798ZM12.0534 13.8632C12.3142 13.9617 12.5514 14.1141 12.7494 14.3105L8.52372 18.5701C8.92488 18.968 9.40535 19.2768 9.93371 19.4763L12.0534 13.8632ZM12.7642 14.3253C13.299 14.8633 13.5528 15.6192 13.4517 16.3704L7.50536 15.5695C7.35761 16.6664 7.72827 17.7699 8.50892 18.5553L12.7642 14.3253ZM13.4634 16.2704C13.4588 16.3159 13.4523 16.3612 13.4438 16.4059L7.54864 15.2892C7.52485 15.4148 7.50645 15.5417 7.49359 15.6695L13.4634 16.2704ZM11.3729 18.455H11.3754V12.455H11.3729V18.455ZM8.67623 16.5112C8.73913 16.698 8.81556 16.8801 8.90501 17.0562L14.2545 14.339C14.2967 14.4221 14.3327 14.508 14.3624 14.5961L8.67623 16.5112ZM8.87996 17.0058C9.10649 17.4733 9.41046 17.8994 9.77933 18.2661L14.0092 14.0107C14.1202 14.1211 14.2115 14.2492 14.2795 14.3895L8.87996 17.0058ZM9.8503 18.3344C8.94027 17.4873 8.70803 16.1371 9.28221 15.0348L14.6036 17.8067C15.276 16.5158 15.004 14.9345 13.9382 13.9425L9.8503 18.3344ZM10.8382 13.7246C10.9368 13.463 11.0896 13.2251 11.2866 13.0265L15.5463 17.252C15.9442 16.8509 16.2529 16.3703 16.4522 15.8418L10.8382 13.7246ZM11.3025 13.0106C11.8386 12.4783 12.5914 12.2244 13.3408 12.324L12.5506 18.2717C13.646 18.4173 14.7466 18.0463 15.5304 17.2679L11.3025 13.0106ZM13.2565 12.314C13.3922 12.3281 13.5249 12.36 13.6511 12.4082L11.5107 18.0134C11.8705 18.1508 12.2483 18.2415 12.635 18.2817L13.2565 12.314ZM15.3205 15.3656C15.3539 15.2281 15.3799 15.0887 15.3983 14.948L9.44909 14.1693C9.45882 14.0949 9.47257 14.0212 9.49024 13.9485L15.3205 15.3656ZM13.9794 16.8991C14.4526 16.6704 14.8828 16.3621 15.2514 15.9878L10.9768 11.7774C11.09 11.6625 11.2221 11.5678 11.3674 11.4976L13.9794 16.8991ZM15.324 15.9115C14.4712 16.8404 13.0982 17.0746 11.9858 16.4815L14.8086 11.187C13.5075 10.4933 11.9017 10.7673 10.9043 11.8536L15.324 15.9115ZM12.257 16.6091C11.6218 16.3481 11.1176 15.8438 10.8568 15.2087L16.4068 12.9289C16.0585 12.0812 15.3854 11.4079 14.5375 11.0594L12.257 16.6091ZM10.953 15.4195C10.6556 14.8296 10.6421 14.1366 10.9163 13.5356L16.3749 16.0263C16.8565 14.971 16.8328 13.7541 16.3105 12.7182L10.953 15.4195ZM15.3983 14.948C15.2977 15.7168 14.8342 16.4661 14.0309 16.8736L11.3159 11.5231C10.2421 12.068 9.58911 13.0995 9.44909 14.1693L15.3983 14.948ZM13.6511 12.4082C14.7125 12.8135 15.1726 13.7029 15.3121 14.2794C15.4331 14.7795 15.3684 15.1683 15.3205 15.3656L9.49024 13.9485C9.39012 14.3604 9.3101 14.9867 9.48035 15.6904C9.66906 16.4704 10.243 17.5293 11.5107 18.0134L13.6511 12.4082ZM13.4438 16.4059C13.3417 16.9451 13.067 17.4424 12.6686 17.818C12.3076 18.1584 11.9445 18.3069 11.7494 18.3702C11.4203 18.477 11.2003 18.4544 11.3616 18.455L11.3841 12.4551C11.1815 12.4543 10.557 12.4492 9.8975 12.6632C9.13123 12.9118 7.86035 13.6437 7.54864 15.2892L13.4438 16.4059ZM14.7206 17.5551C14.8586 17.2163 14.9332 16.8561 14.9417 16.4926L8.9434 16.3514C8.95194 15.9885 9.02637 15.629 9.16417 15.2909L14.7206 17.5551ZM8.7218 11.9264C7.71255 12.438 7.07767 13.4731 7.07767 14.6031H13.0777C13.0777 15.7323 12.4432 16.7668 11.4346 17.2781L8.7218 11.9264ZM10.9163 13.5356C10.7387 13.9249 10.6454 14.3498 10.6454 14.7822H16.6454C16.6454 15.2137 16.5522 15.6378 16.3749 16.0263L10.9163 13.5356ZM7.32322 14.5368C7.26386 13.2628 8.05572 12.106 9.26328 11.6994L11.1779 17.3857C12.5082 16.9378 13.3821 15.6609 13.3167 14.2576L7.32322 14.5368ZM9.36312 16.4671C8.8254 16.3642 8.33049 16.0899 7.95665 15.6935C7.61765 15.3341 7.46909 14.9727 7.4055 14.7775C7.2981 14.4479 7.3206 14.2279 7.31999 14.3856L13.3199 14.4088C13.3207 14.2027 13.3253 13.5785 13.1103 12.9186C12.8608 12.1531 12.1299 10.8875 10.4903 10.5739L9.36312 16.4671ZM11.4971 18.4526C10.2419 18.5035 9.08512 17.7253 8.67623 16.5112L14.3624 14.5961C13.9126 13.2606 12.6371 12.4014 11.2538 12.4575L11.4971 18.4526ZM11.2342 10.3474C12.5082 10.2864 13.6735 11.0779 14.0799 12.2968L8.38789 14.1945C8.83479 15.535 10.1189 16.4076 11.5209 16.3405L11.2342 10.3474ZM9.30729 12.3946C9.40898 11.8552 9.68337 11.3575 10.0819 10.9814C10.443 10.6407 10.8061 10.492 11.0011 10.4287C11.3296 10.322 11.5493 10.3445 11.3865 10.344L11.3686 16.3439C11.5704 16.3445 12.1952 16.3494 12.8546 16.1352C13.6211 15.8862 14.8929 15.1534 15.2034 13.5062L9.30729 12.3946ZM9.28221 15.0348C9.07322 15.436 8.95436 15.8857 8.9434 16.3514L14.9417 16.4926C14.9308 16.9574 14.8122 17.4062 14.6036 17.8067L9.28221 15.0348ZM13.4687 13.7614C12.0836 16.4258 7.8071 15.6546 7.8071 12.3777H13.8071C13.8071 9.10058 9.53024 8.32931 8.14505 10.9939L13.4687 13.7614ZM16.4522 15.8418C16.5802 15.5025 16.6454 15.1435 16.6454 14.7822H10.6454C10.6454 14.4215 10.7105 14.0632 10.8382 13.7246L16.4522 15.8418ZM11.3839 17.3044C12.4187 16.8036 13.0777 15.7549 13.0777 14.6031H7.07767C7.07767 13.452 7.73622 12.404 8.77031 11.9035L11.3839 17.3044ZM14.6864 14.1566C15.3614 15.5145 14.8789 17.0043 13.8794 17.8028C12.9296 18.5616 11.5197 18.7109 10.3845 17.9583L13.6998 12.9574C12.5399 12.1885 11.1024 12.3417 10.1344 13.115C9.11672 13.928 8.62544 15.4431 9.31363 16.8275L14.6864 14.1566ZM11.6272 17.7065C10.2757 18.383 8.77788 17.912 7.97169 16.9007C7.20814 15.9429 7.07158 14.5342 7.81794 13.4083L12.8189 16.7235C13.5817 15.5729 13.4413 14.1365 12.6633 13.1605C11.8426 12.131 10.3195 11.6513 8.94147 12.3411L11.6272 17.7065ZM8.02798 11.2485C9.23612 8.27495 13.8071 8.99951 13.8071 12.3777H7.8071C7.8071 15.7562 12.3785 16.4808 13.5867 13.507L8.02798 11.2485ZM8.05507 14.6256C7.38836 13.2658 7.87755 11.782 8.87615 10.9892C9.825 10.2359 11.2305 10.0885 12.363 10.8392L9.04805 15.8403C10.2057 16.6076 11.6394 16.4564 12.6069 15.6883C13.6242 14.8807 14.1224 13.3711 13.4424 11.9842L8.05507 14.6256ZM11.1419 11.0832C12.5012 10.4139 13.9881 10.9011 14.7828 11.9024C15.5373 12.8529 15.6823 14.2592 14.9314 15.3903L9.93272 12.0716C9.16486 13.2282 9.31376 14.663 10.0832 15.6324C10.8929 16.6526 12.4059 17.1489 13.7926 16.466L11.1419 11.0832Z" fill="white" mask="url(#path-4-inside-2_1814_16968)"/>
<rect x="6.5" y="8.5" width="17" height="11.2857" rx="1.5" stroke="white"/>
<rect x="20.3008" y="10.1623" width="2.04582" height="0.228992" rx="0.114496" stroke="white" stroke-width="0.228992"/>
<rect x="17.3762" y="11.9944" width="4.97057" height="0.228992" rx="0.114496" stroke="white" stroke-width="0.228992"/>
<rect x="17.3762" y="12.9104" width="4.97057" height="0.228992" rx="0.114496" stroke="white" stroke-width="0.228992"/>
<rect x="17.3762" y="13.8254" width="4.97057" height="0.228992" rx="0.114496" stroke="white" stroke-width="0.228992"/>
<rect x="17.3762" y="14.7424" width="4.97057" height="0.228992" rx="0.114496" stroke="white" stroke-width="0.228992"/>
<rect x="17.3762" y="15.6584" width="4.97057" height="0.228992" rx="0.114496" stroke="white" stroke-width="0.228992"/>
<rect x="17.3762" y="16.5735" width="4.97057" height="0.228992" rx="0.114496" stroke="white" stroke-width="0.228992"/>
<rect x="17.3762" y="17.4905" width="4.97057" height="0.228992" rx="0.114496" stroke="white" stroke-width="0.228992"/>
<rect x="21.9966" y="11.1993" width="0.255952" height="0.255952" rx="0.127976" stroke="white" stroke-width="0.255952"/>
<rect x="20.4607" y="11.1993" width="0.255952" height="0.255952" rx="0.127976" stroke="white" stroke-width="0.255952"/>
</svg>
