<svg width="31" height="38" viewBox="0 0 31 38" fill="none" xmlns="http://www.w3.org/2000/svg">
<path fill-rule="evenodd" clip-rule="evenodd" d="M0 15.7908C0.0288149 7.30959 6.92752 0.457604 15.4087 0.486419C23.8899 0.515234 30.7419 7.41394 30.713 15.8951V16.069C30.6087 21.5821 27.5304 26.6777 23.7565 30.6603C21.5982 32.9016 19.188 34.8858 16.5739 36.5734C15.8749 37.178 14.8381 37.178 14.1391 36.5734C10.2421 34.0369 6.82187 30.8344 4.03478 27.1125C1.5507 23.8669 0.14033 19.9276 0 15.8429L0 15.7908Z" fill="#53B0B6"/>
<path d="M15.6957 7H15.6086C15.0564 7 14.6086 7.44771 14.6086 8V11.3598C14.6086 11.4673 14.626 11.574 14.66 11.676L14.7365 11.9056C14.8679 12.2998 15.2367 12.5656 15.6522 12.5656C16.0677 12.5656 16.4365 12.2998 16.5679 11.9056L16.6444 11.676C16.6784 11.574 16.6957 11.4673 16.6957 11.3598V8C16.6957 7.44772 16.248 7 15.6957 7Z" fill="#53B0B6" stroke="white"/>
<path d="M15.6527 12.5645V14.7633C15.6527 14.9186 15.6166 15.0717 15.5471 15.2106L15.5236 15.2577C15.3856 15.5337 15.1279 15.7305 14.8253 15.791L8.55155 17.0458C8.41873 17.0723 8.29674 17.1376 8.20096 17.2334V17.2334C8.07229 17.3621 8 17.5366 8 17.7186V19.8693C8 20.2535 8.31148 20.565 8.6957 20.565V20.565" stroke="white"/>
<rect x="9.19385" y="18.6309" width="12.2183" height="3.86991" rx="0.5" stroke="white"/>
</svg>
