<svg width="31" height="38" viewBox="0 0 31 38" fill="none" xmlns="http://www.w3.org/2000/svg">
<path fill-rule="evenodd" clip-rule="evenodd" d="M0 16.1687C0.0288149 7.68752 6.92752 0.835534 15.4087 0.864348C23.8899 0.893163 30.7419 7.79187 30.713 16.273V16.447C30.6087 21.96 27.5304 27.0557 23.7565 31.0383C21.5982 33.2795 19.188 35.2637 16.5739 36.9513C15.8749 37.5559 14.8381 37.5559 14.1391 36.9513C10.2421 34.4148 6.82187 31.2123 4.03478 27.4904C1.5507 24.2449 0.14033 20.3056 0 16.2209L0 16.1687Z" fill="#FF9999"/>
<path d="M15.0628 11.9512L9.72964 18.1826L9.20679 18.2258V19.2716H12.8221V18.3565L15.0628 15.9602L17.1104 18.3565V19.2716H20.7268V18.2258L20.2039 18.1826L15.0628 11.9512Z" stroke="white" stroke-miterlimit="10" stroke-linecap="round" stroke-linejoin="round"/>
<path d="M17.5721 14.9934V11.9515H17.1545V10.8623H20.204V11.9515H19.7689L19.7648 17.6502" stroke="white" stroke-miterlimit="10" stroke-linecap="round" stroke-linejoin="round"/>
</svg>
