<svg width="31" height="38" viewBox="0 0 31 38" fill="none" xmlns="http://www.w3.org/2000/svg">
<path fill-rule="evenodd" clip-rule="evenodd" d="M0 16.2498C0.0288149 7.76858 6.92752 0.916588 15.4087 0.945403C23.8899 0.974218 30.7419 7.87293 30.713 16.3541V16.528C30.6087 22.0411 27.5304 27.1367 23.7565 31.1193C21.5982 33.3606 19.188 35.3448 16.5739 37.0324C15.8749 37.637 14.8381 37.637 14.1391 37.0324C10.2421 34.4958 6.82187 31.2934 4.03478 27.5715C1.5507 24.3259 0.14033 20.3866 0 16.3019L0 16.2498Z" fill="#FF0000"/>
<rect x="10.6858" y="13.837" width="4.83333" height="1.5" rx="0.75" transform="rotate(-40.7032 10.6858 13.837)" stroke="white" stroke-width="0.5"/>
<rect x="14.6858" y="17.837" width="4.83333" height="1.5" rx="0.75" transform="rotate(-40.7032 14.6858 17.837)" stroke="white" stroke-width="0.5"/>
<rect x="10.9793" y="16.7316" width="9.02371" height="2.215" rx="1.1075" transform="rotate(-40.7032 10.9793 16.7316)" stroke="white" stroke-width="0.5"/>
<rect x="7.25" y="7.25" width="15.5" height="15.5" rx="0.75" stroke="white" stroke-width="0.5"/>
<rect x="8.58325" y="8.58301" width="12.8333" height="12.8333" rx="0.75" stroke="white" stroke-width="0.5"/>
<rect x="9.91675" y="9.91699" width="10.1667" height="10.1667" rx="0.75" stroke="white" stroke-width="0.5"/>
</svg>
