<svg width="33" height="39" viewBox="0 0 33 39" fill="none" xmlns="http://www.w3.org/2000/svg">
<path fill-rule="evenodd" clip-rule="evenodd" d="M1 16.3044C1.02881 7.82327 7.92752 0.971276 16.4087 1.00009C24.8899 1.02891 31.7419 7.92761 31.713 16.4088V16.5827C31.6087 22.0957 28.5304 27.1914 24.7565 31.174C22.5982 33.4153 20.188 35.3995 17.5739 37.087C16.8749 37.6917 15.8381 37.6917 15.1391 37.087C11.2421 34.5505 7.82187 31.3481 5.03478 27.6262C2.5507 24.3806 1.14033 20.4413 1 16.3566L1 16.3044Z" fill="#3990E4" stroke="#3990E4" stroke-width="1.5" stroke-linecap="round" stroke-linejoin="round"/>
<path d="M21.9668 17.6997L17.7068 21.9597C16.7734 22.893 15.2401 22.893 14.3001 21.9597L10.0401 17.6997C9.10675 16.7663 9.10675 15.233 10.0401 14.293L14.3001 10.033C15.2334 9.09967 16.7668 9.09967 17.7068 10.033L21.9668 14.293C22.9001 15.233 22.9001 16.7663 21.9668 17.6997Z" stroke="white" stroke-width="1.5" stroke-linecap="round" stroke-linejoin="round"/>
</svg>
