<svg width="31" height="38" viewBox="0 0 31 38" fill="none" xmlns="http://www.w3.org/2000/svg">
<path fill-rule="evenodd" clip-rule="evenodd" d="M0 15.9255C0.0288149 7.44436 6.92752 0.592369 15.4087 0.621184C23.8899 0.649999 30.7419 7.54871 30.713 16.0299V16.2038C30.6087 21.7168 27.5304 26.8125 23.7565 30.7951C21.5982 33.0364 19.188 35.0205 16.5739 36.7081C15.8749 37.3128 14.8381 37.3128 14.1391 36.7081C10.2421 34.1716 6.82187 30.9692 4.03478 27.2473C1.5507 24.0017 0.14033 20.0624 0 15.9777L0 15.9255Z" fill="#FFCC66"/>
<path d="M17.4375 17.4111H7.5625C6.625 17.4111 6.25 17.8573 6.25 18.9657V21.782C6.25 22.8905 6.625 23.3366 7.5625 23.3366H17.4375C18.375 23.3366 18.75 22.8905 18.75 21.782V18.9657C18.75 17.8573 18.375 17.4111 17.4375 17.4111Z" stroke="white" stroke-width="1.5" stroke-linecap="round" stroke-linejoin="round"/>
<path d="M17.4375 9.39355H7.5625C6.625 9.39355 6.25 9.83971 6.25 10.9481V13.7645C6.25 14.8729 6.625 15.319 7.5625 15.319H17.4375C18.375 15.319 18.75 14.8729 18.75 13.7645V10.9481C18.75 9.83971 18.375 9.39355 17.4375 9.39355Z" stroke="white" stroke-width="1.5" stroke-linecap="round" stroke-linejoin="round"/>
<path d="M26 9.36523L26 23.3652" stroke="white" stroke-width="0.5" stroke-linejoin="round"/>
</svg>
