<svg width="31" height="37" viewBox="0 0 31 37" fill="none" xmlns="http://www.w3.org/2000/svg">
<path fill-rule="evenodd" clip-rule="evenodd" d="M0 15.5476C0.0288149 7.06643 6.92752 0.21444 15.4087 0.243255C23.8899 0.272069 30.7419 7.17078 30.713 15.6519V15.8259C30.6087 21.3389 27.5304 26.4346 23.7565 30.4172C21.5982 32.6584 19.188 34.6426 16.5739 36.3302C15.8749 36.9348 14.8381 36.9348 14.1391 36.3302C10.2421 33.7937 6.82187 30.5912 4.03478 26.8693C1.5507 23.6238 0.14033 19.6845 0 15.5998L0 15.5476Z" fill="#568DC3"/>
<path d="M9 16.293L13.26 12.033C14.1933 11.0997 15.7267 11.0997 16.6667 12.033L20.9267 16.293" stroke="white" stroke-width="1.5" stroke-linecap="round" stroke-linejoin="round"/>
</svg>
