<svg width="31" height="37" viewBox="0 0 31 37" fill="none" xmlns="http://www.w3.org/2000/svg">
<path fill-rule="evenodd" clip-rule="evenodd" d="M0 15.3855C0.0288149 6.90432 6.92752 0.0523304 15.4087 0.0811452C23.8899 0.10996 30.7419 7.00867 30.713 15.4898V15.6638C30.6087 21.1768 27.5304 26.2724 23.7565 30.2551C21.5982 32.4963 19.188 34.4805 16.5739 36.1681C15.8749 36.7727 14.8381 36.7727 14.1391 36.1681C10.2421 33.6316 6.82187 30.4291 4.03478 26.7072C1.5507 23.4617 0.14033 19.5224 0 15.4377L0 15.3855Z" fill="#0D5CA9"/>
<path d="M15.6734 9.94688L19.6068 11.6935C20.7401 12.1935 20.7401 13.0202 19.6068 13.5202L15.6734 15.2669C15.2268 15.4669 14.4934 15.4669 14.0468 15.2669L10.1134 13.5202C8.98009 13.0202 8.98009 12.1935 10.1134 11.6935L14.0468 9.94688C14.4934 9.74687 15.2268 9.74687 15.6734 9.94688Z" stroke="white" stroke-width="1.5" stroke-linecap="round" stroke-linejoin="round"/>
<path d="M9 15.333C9 15.893 9.42 16.5397 9.93333 16.7663L14.46 18.7797C14.8067 18.933 15.2 18.933 15.54 18.7797L20.0667 16.7663C20.58 16.5397 21 15.893 21 15.333" stroke="white" stroke-width="1.5" stroke-linecap="round" stroke-linejoin="round"/>
<path d="M9 18.667C9 19.287 9.36667 19.847 9.93333 20.1003L14.46 22.1137C14.8067 22.267 15.2 22.267 15.54 22.1137L20.0667 20.1003C20.6333 19.847 21 19.287 21 18.667" stroke="white" stroke-width="1.5" stroke-linecap="round" stroke-linejoin="round"/>
</svg>

