<svg width="48" height="48" viewBox="0 0 48 48" fill="none" xmlns="http://www.w3.org/2000/svg">
<path fill-rule="evenodd" clip-rule="evenodd" d="M8.47827 20.7827C8.50709 12.3015 15.4058 5.44955 23.887 5.47836C32.3681 5.50718 39.2201 12.4059 39.1913 20.8871V21.061C39.087 26.574 36.0087 31.6697 32.2348 35.6523C30.0765 37.8935 27.6663 39.8777 25.0522 41.5653C24.3532 42.1699 23.3164 42.1699 22.6174 41.5653C18.7204 39.0288 15.3001 35.8264 12.5131 32.1044C10.029 28.8589 8.6186 24.9196 8.47827 20.8349L8.47827 20.7827Z" fill="#D9D9D9" stroke="#3990E4" stroke-width="1.5" stroke-linecap="round" stroke-linejoin="round"/>
<path d="M28.6834 17C29.5075 17 30.2427 17.1768 30.8893 17.5304C31.5485 17.8839 32.0619 18.4077 32.4295 19.1018C32.8098 19.7958 33 20.6339 33 21.6161V28H30.8512V21.95C30.8512 20.981 30.6167 20.2411 30.1477 19.7304C29.6786 19.2065 29.0384 18.9446 28.2271 18.9446C27.4157 18.9446 26.7692 19.2065 26.2875 19.7304C25.8184 20.2411 25.5839 20.981 25.5839 21.95V28H23.4351V21.95C23.4351 20.981 23.2006 20.2411 22.7315 19.7304C22.2625 19.2065 21.6223 18.9446 20.811 18.9446C19.9996 18.9446 19.3531 19.2065 18.8714 19.7304C18.4023 20.2411 18.1678 20.981 18.1678 21.95V28H16V17.1768H18.1678V18.4143C18.5227 17.969 18.9728 17.622 19.5179 17.3732C20.063 17.1244 20.6462 17 21.2673 17C22.104 17 22.852 17.1833 23.5112 17.55C24.1704 17.9167 24.6775 18.447 25.0324 19.1411C25.3494 18.4863 25.8438 17.969 26.5157 17.5893C27.1875 17.1964 27.9101 17 28.6834 17Z" fill="#3990E4"/>
</svg>
