<svg width="31" height="37" viewBox="0 0 31 37" fill="none" xmlns="http://www.w3.org/2000/svg">
<path fill-rule="evenodd" clip-rule="evenodd" d="M0 15.4665C0.0288149 6.98538 6.92752 0.133385 15.4087 0.1622C23.8899 0.191015 30.7419 7.08972 30.713 15.5709V15.7448C30.6087 21.2579 27.5304 26.3535 23.7565 30.3361C21.5982 32.5774 19.188 34.5616 16.5739 36.2492C15.8749 36.8538 14.8381 36.8538 14.1391 36.2492C10.2421 33.7126 6.82187 30.5102 4.03478 26.7883C1.5507 23.5427 0.14033 19.6034 0 15.5187L0 15.4665Z" fill="#70DB94"/>
<path d="M13.3333 12.8333H12.8333V13.3333V22C12.8333 22.2761 12.6095 22.5 12.3333 22.5H8C7.72386 22.5 7.5 22.2761 7.5 22V8C7.5 7.72386 7.72386 7.5 8 7.5H22C22.2761 7.5 22.5 7.72386 22.5 8V12.3333C22.5 12.6095 22.2761 12.8333 22 12.8333H13.3333Z" stroke="white"/>
</svg>
