<svg width="31" height="38" viewBox="0 0 31 38" fill="none" xmlns="http://www.w3.org/2000/svg">
<path fill-rule="evenodd" clip-rule="evenodd" d="M0 16.0066C0.0288149 7.52541 6.92752 0.673424 15.4087 0.702239C23.8899 0.731054 30.7419 7.62976 30.713 16.1109V16.2848C30.6087 21.7979 27.5304 26.8935 23.7565 30.8762C21.5982 33.1174 19.188 35.1016 16.5739 36.7892C15.8749 37.3938 14.8381 37.3938 14.1391 36.7892C10.2421 34.2527 6.82187 31.0502 4.03478 27.3283C1.5507 24.0828 0.14033 20.1434 0 16.0588L0 16.0066Z" fill="#FF4D4D"/>
<rect x="15.25" y="7.25" width="0.5" height="15.5" rx="0.25" stroke="white" stroke-width="0.5"/>
<rect x="13.1667" y="14.1663" width="0.333333" height="4.66667" rx="0.166667" transform="rotate(-90 13.1667 14.1663)" stroke="white" stroke-width="0.333333"/>
<rect x="13.1667" y="16.1663" width="0.333333" height="4.66667" rx="0.166667" transform="rotate(-90 13.1667 16.1663)" stroke="white" stroke-width="0.333333"/>
</svg>
