<svg width="48" height="48" viewBox="0 0 48 48" fill="none" xmlns="http://www.w3.org/2000/svg">
<path fill-rule="evenodd" clip-rule="evenodd" d="M8.47827 20.7827C8.50709 12.3015 15.4058 5.44955 23.887 5.47836C32.3681 5.50718 39.2201 12.4059 39.1913 20.8871V21.061C39.087 26.574 36.0087 31.6697 32.2348 35.6523C30.0765 37.8935 27.6663 39.8777 25.0522 41.5653C24.3532 42.1699 23.3164 42.1699 22.6174 41.5653C18.7204 39.0288 15.3001 35.8264 12.5131 32.1044C10.029 28.8589 8.6186 24.9196 8.47827 20.8349L8.47827 20.7827Z" fill="#D9D9D9" stroke="#3990E4" stroke-width="1.5" stroke-linecap="round" stroke-linejoin="round"/>
<path d="M18.16 14V27.1621H16V14H18.16Z" fill="#3990E4"/>
<path d="M25.2021 17.2016C26.0106 17.2016 26.7242 17.3557 27.3432 17.664C27.9748 17.9605 28.4674 18.334 28.8211 18.7846V17.3617H31V27.3221C31 28.2233 30.7979 29.0237 30.3937 29.7233C29.9895 30.4348 29.4021 30.9921 28.6316 31.3953C27.8737 31.7984 26.9642 32 25.9032 32C24.4885 32 23.3137 31.6858 22.379 31.0573C21.4443 30.4407 20.9138 29.5988 20.7874 28.5316H22.9285C23.0927 29.0415 23.44 29.4506 23.9706 29.7589C24.5137 30.0791 25.1579 30.2391 25.9032 30.2391C26.7748 30.2391 27.4758 29.9901 28.0063 29.4921C28.5495 28.9941 28.8211 28.2708 28.8211 27.3221V25.6858C28.4548 26.1482 27.9558 26.5395 27.3242 26.8597C26.7053 27.168 25.9979 27.3221 25.2021 27.3221C24.2927 27.3221 23.459 27.1087 22.7011 26.6818C21.9558 26.2431 21.3622 25.6383 20.9201 24.8676C20.4906 24.085 20.2759 23.2016 20.2759 22.2174C20.2759 21.2332 20.4906 20.3617 20.9201 19.6028C21.3622 18.8439 21.9558 18.2569 22.7011 17.8419C23.459 17.415 24.2927 17.2016 25.2021 17.2016ZM28.8211 22.253C28.8211 21.5771 28.6695 20.9901 28.3663 20.4921C28.0758 19.9941 27.6905 19.6146 27.2106 19.3538C26.7306 19.0929 26.2127 18.9625 25.6569 18.9625C25.1011 18.9625 24.5832 19.0929 24.1032 19.3538C23.6232 19.6028 23.2316 19.9763 22.9285 20.4743C22.6379 20.9605 22.4927 21.5415 22.4927 22.2174C22.4927 22.8933 22.6379 23.4862 22.9285 23.996C23.2316 24.5059 23.6232 24.8972 24.1032 25.17C24.5958 25.4308 25.1137 25.5613 25.6569 25.5613C26.2127 25.5613 26.7306 25.4308 27.2106 25.17C27.6905 24.9091 28.0758 24.5296 28.3663 24.0316C28.6695 23.5217 28.8211 22.9289 28.8211 22.253Z" fill="#3990E4"/>
</svg>
